<?xml version="1.0" standalone="no"?>
 <!DOCTYPE svg PUBLIC "-//W3C//DTD SVG 1.1//EN" 
 "http://www.w3.org/Graphics/SVG/1.1/DTD/svg11.dtd"> 
<svg
  xmlns:svg="http://www.w3.org/2000/svg"
  xmlns="http://www.w3.org/2000/svg"
  xmlns:xlink="http://www.w3.org/1999/xlink"
  version="1.1"
  width="279.4000mm" height="215.9000mm" viewBox="0.0000 0.0000 279.4000 215.9000">
<title>SVG Image created as jolt2-pm2350-left-Edge_Cuts.svg date 2024/12/18 09:47:32 </title>
  <desc>Image generated by PCBNEW </desc>
<g style="fill:#000000; fill-opacity:1.0000;stroke:#000000; stroke-opacity:1.0000;
stroke-linecap:round; stroke-linejoin:round;"
 transform="translate(0 0) scale(1 1)">
<path style="fill:none; 
stroke:#C2C200; stroke-width:0.0500; stroke-opacity:1; 
stroke-linecap:round; stroke-linejoin:round;fill:none"
d="M 147.0000,72.0000
147.0000,103.0000
150.4000,103.0000
150.4000,133.4000
164.4000,133.5000
164.4000,103.0000
188.0000,103.0000
188.0000,152.0000
166.0000,166.0000
102.0000,155.0000
106.0000,135.0000
95.0000,135.0000
76.0000,146.0000
37.0000,146.0000
37.0000,81.0000
93.0000,68.0000
109.0000,68.0000
Z" /> 
<path style="fill:none; 
stroke:#C2C200; stroke-width:0.0500; stroke-opacity:1; 
stroke-linecap:round; stroke-linejoin:round;fill:none"
d="M 147.0000,72.0000
147.0000,103.0000
150.4000,103.0000
150.4000,133.4000
164.4000,133.5000
164.4000,103.0000
188.0000,103.0000
188.0000,152.0000
166.0000,166.0000
102.0000,155.0000
106.0000,135.0000
95.0000,135.0000
76.0000,146.0000
37.0000,146.0000
37.0000,81.0000
93.0000,68.0000
109.0000,68.0000
Z" /> 
</g> 
</svg>
