0
SECTION
2
HEADER
9
$INSUNITS
70
4
9
$MEASUREMENT
70
1
0
ENDSEC
0
SECTION
2
ENTITIES
0
LINE
8
Edge_Cuts
10
32.3030
20
-17.9050
30
0.0
11
32.2790
21
-18.4680
31
0.0
0
LINE
8
Edge_Cuts
10
32.2790
20
-18.4680
30
0.0
11
29.6620
21
-16.8260
31
0.0
0
LINE
8
Edge_Cuts
10
29.6620
20
-16.8260
30
0.0
11
12.3010
21
-5.9230
31
0.0
0
LINE
8
Edge_Cuts
10
12.3010
20
-5.9230
30
0.0
11
0.0000
21
-25.5340
31
0.0
0
LINE
8
Edge_Cuts
10
0.0000
20
-25.5340
30
0.0
11
14.3960
21
-34.5640
31
0.0
0
LINE
8
Edge_Cuts
10
14.3960
20
-34.5640
30
0.0
11
31.7560
21
-45.4670
31
0.0
0
LINE
8
Edge_Cuts
10
31.7560
20
-45.4670
30
0.0
11
36.0710
21
-38.5890
31
0.0
0
LINE
8
Edge_Cuts
10
36.0710
20
-38.5890
30
0.0
11
66.5260
21
-39.9180
31
0.0
0
LINE
8
Edge_Cuts
10
66.5260
20
-39.9180
30
0.0
11
66.5710
21
-38.8860
31
0.0
0
LINE
8
Edge_Cuts
10
66.5710
20
-38.8860
30
0.0
11
74.2690
21
-40.5500
31
0.0
0
LINE
8
Edge_Cuts
10
74.2690
20
-40.5500
30
0.0
11
65.7510
21
-51.8550
31
0.0
0
LINE
8
Edge_Cuts
10
65.7510
20
-51.8550
30
0.0
11
84.2390
21
-65.7870
31
0.0
0
LINE
8
Edge_Cuts
10
84.2390
20
-65.7870
30
0.0
11
86.4090
21
-62.9080
31
0.0
0
LINE
8
Edge_Cuts
10
86.4090
20
-62.9080
30
0.0
11
86.4090
21
-69.3970
31
0.0
0
LINE
8
Edge_Cuts
10
86.4090
20
-69.3970
30
0.0
11
86.1610
21
-69.1350
31
0.0
0
LINE
8
Edge_Cuts
10
86.1610
20
-69.1350
30
0.0
11
69.3410
21
-85.0410
31
0.0
0
LINE
8
Edge_Cuts
10
69.3410
20
-85.0410
30
0.0
11
81.7110
21
-98.1210
31
0.0
0
LINE
8
Edge_Cuts
10
81.7110
20
-98.1210
30
0.0
11
95.7860
21
-113.0250
31
0.0
0
LINE
8
Edge_Cuts
10
95.7860
20
-113.0250
30
0.0
11
114.1210
21
-96.6750
31
0.0
0
LINE
8
Edge_Cuts
10
114.1210
20
-96.6750
30
0.0
11
132.4560
21
-113.0250
31
0.0
0
LINE
8
Edge_Cuts
10
132.4560
20
-113.0250
30
0.0
11
146.5420
21
-98.1310
31
0.0
0
LINE
8
Edge_Cuts
10
146.5420
20
-98.1310
30
0.0
11
158.9020
21
-85.0410
31
0.0
0
LINE
8
Edge_Cuts
10
158.9020
20
-85.0410
30
0.0
11
142.0820
21
-69.1350
31
0.0
0
LINE
8
Edge_Cuts
10
142.0820
20
-69.1350
30
0.0
11
141.8340
21
-69.3970
31
0.0
0
LINE
8
Edge_Cuts
10
141.8340
20
-69.3970
30
0.0
11
141.8340
21
-62.9080
31
0.0
0
LINE
8
Edge_Cuts
10
141.8340
20
-62.9080
30
0.0
11
144.0030
21
-65.7870
31
0.0
0
LINE
8
Edge_Cuts
10
144.0030
20
-65.7870
30
0.0
11
162.4920
21
-51.8550
31
0.0
0
LINE
8
Edge_Cuts
10
162.4920
20
-51.8550
30
0.0
11
153.9730
21
-40.5500
31
0.0
0
LINE
8
Edge_Cuts
10
153.9730
20
-40.5500
30
0.0
11
161.6720
21
-38.8860
31
0.0
0
LINE
8
Edge_Cuts
10
161.6720
20
-38.8860
30
0.0
11
161.7170
21
-39.9180
31
0.0
0
LINE
8
Edge_Cuts
10
161.7170
20
-39.9180
30
0.0
11
192.1720
21
-38.5890
31
0.0
0
LINE
8
Edge_Cuts
10
192.1720
20
-38.5890
30
0.0
11
196.4870
21
-45.4670
31
0.0
0
LINE
8
Edge_Cuts
10
196.4870
20
-45.4670
30
0.0
11
213.8530
21
-34.5740
31
0.0
0
LINE
8
Edge_Cuts
10
213.8530
20
-34.5740
30
0.0
11
228.2430
21
-25.5340
31
0.0
0
LINE
8
Edge_Cuts
10
228.2430
20
-25.5340
30
0.0
11
215.9410
21
-5.9230
31
0.0
0
LINE
8
Edge_Cuts
10
215.9410
20
-5.9230
30
0.0
11
198.5750
21
-16.8160
31
0.0
0
LINE
8
Edge_Cuts
10
198.5750
20
-16.8160
30
0.0
11
195.9640
21
-18.4680
31
0.0
0
LINE
8
Edge_Cuts
10
195.9640
20
-18.4680
30
0.0
11
195.9390
21
-17.9050
31
0.0
0
LINE
8
Edge_Cuts
10
195.9390
20
-17.9050
30
0.0
11
191.9540
21
-18.0790
31
0.0
0
LINE
8
Edge_Cuts
10
191.9540
20
-18.0790
30
0.0
11
191.2130
21
-1.0990
31
0.0
0
LINE
8
Edge_Cuts
10
191.2130
20
-1.0990
30
0.0
11
164.0570
21
-0.0000
31
0.0
0
LINE
8
Edge_Cuts
10
164.0570
20
-0.0000
30
0.0
11
141.4290
21
-4.8930
31
0.0
0
LINE
8
Edge_Cuts
10
141.4290
20
-4.8930
30
0.0
11
144.3810
21
-18.5450
31
0.0
0
LINE
8
Edge_Cuts
10
144.3810
20
-18.5450
30
0.0
11
120.4240
21
-36.5980
31
0.0
0
LINE
8
Edge_Cuts
10
107.8240
20
-36.6000
30
0.0
11
83.8610
21
-18.5450
31
0.0
0
LINE
8
Edge_Cuts
10
83.8610
20
-18.5450
30
0.0
11
86.8130
21
-4.8930
31
0.0
0
LINE
8
Edge_Cuts
10
86.8130
20
-4.8930
30
0.0
11
64.1860
21
-0.0000
31
0.0
0
LINE
8
Edge_Cuts
10
64.1860
20
-0.0000
30
0.0
11
37.0300
21
-1.0990
31
0.0
0
LINE
8
Edge_Cuts
10
37.0300
20
-1.0990
30
0.0
11
36.2880
21
-18.0790
31
0.0
0
LINE
8
Edge_Cuts
10
36.2880
20
-18.0790
30
0.0
11
32.3030
21
-17.9050
31
0.0
0
ENDSEC
0
EOF
