  0
SECTION
  2
HEADER
  9
$ANGBASE
  50
0.0
  9
$ANGDIR
  70
1
  9
$MEASUREMENT
  70
1
  0
ENDSEC
  0
SECTION
  2
TABLES
  0
TABLE
  2
LTYPE
  70
4
  0
LTYPE
  5
40F
  2
CONTINUOUS
  70
0
  3
Solid line
  72
65
  73
0
  40
0.0
  0
LTYPE
  5
410
  2
DASHDOT
 70
0
  3
Dash Dot ____ _ ____ _
 72
65
 73
4
 40
2.0
 49
1.25
 49
-0.25
 49
0.25
 49
-0.25
  0
LTYPE
  5
411
  2
DASHED
 70
0
  3
Dashed __ __ __ __ __
 72
65
 73
2
 40
0.75
 49
0.5
 49
-0.25
  0
LTYPE
  5
43B
  2
DOTTED
 70
0
  3
Dotted .  .  .  .
 72
65
 73
2
 40
0.2
 49
0.0
 49
-0.2
  0
ENDTAB
  0
TABLE
  2
STYLE
  70
4
  0
STYLE
  2
KICAD
  70
0
  40
0
  41
1
  42
1
  50
0
  71
0
  3
isocp.shx
  0
STYLE
  2
KICADB
  70
0
  40
0
  41
1
  42
1
  50
0
  71
0
  3
isocp.shx
  0
STYLE
  2
KICADI
  70
0
  40
0
  41
1
  42
1
  50
15
  71
0
  3
isocp.shx
  0
STYLE
  2
KICADBI
  70
0
  40
0
  41
1
  42
1
  50
15
  71
0
  3
isocp.shx
  0
ENDTAB
  0
TABLE
  2
LAYER
  70
1
  0
LAYER
  2
BLACK
  70
0
  62
7
  6
CONTINUOUS
  0
ENDTAB
  0
ENDSEC
  0
SECTION
  2
ENTITIES
0
LINE
8
BLACK
6
CONTINUOUS
10
147.
20
-72.
11
147.
21
-103.
0
LINE
8
BLACK
6
CONTINUOUS
10
147.
20
-103.
11
188.
21
-103.
0
LINE
8
BLACK
6
CONTINUOUS
10
188.
20
-103.
11
188.
21
-152.
0
LINE
8
BLACK
6
CONTINUOUS
10
188.
20
-152.
11
166.
21
-166.
0
LINE
8
BLACK
6
CONTINUOUS
10
166.
20
-166.
11
102.
21
-155.
0
LINE
8
BLACK
6
CONTINUOUS
10
102.
20
-155.
11
106.
21
-135.
0
LINE
8
BLACK
6
CONTINUOUS
10
106.
20
-135.
11
95.
21
-135.
0
LINE
8
BLACK
6
CONTINUOUS
10
95.
20
-135.
11
76.
21
-146.
0
LINE
8
BLACK
6
CONTINUOUS
10
76.
20
-146.
11
37.
21
-146.
0
LINE
8
BLACK
6
CONTINUOUS
10
37.
20
-146.
11
37.
21
-81.
0
LINE
8
BLACK
6
CONTINUOUS
10
37.
20
-81.
11
93.
21
-68.
0
LINE
8
BLACK
6
CONTINUOUS
10
93.
20
-68.
11
109.
21
-68.
0
LINE
8
BLACK
6
CONTINUOUS
10
109.
20
-68.
11
147.
21
-72.
0
CIRCLE
8
BLACK
10
136.
20
-86.
40
1.4142139999999999
0
CIRCLE
8
BLACK
10
118.
20
-122.
40
1.4142139999999999
0
CIRCLE
8
BLACK
10
64.
20
-95.
40
1.4142139999999999
0
CIRCLE
8
BLACK
10
82.
20
-104.
40
1.4142139999999999
0
CIRCLE
8
BLACK
10
154.4530790000000025
20
-153.2513339999999857
40
1.4142139999999999
0
CIRCLE
8
BLACK
10
118.
20
-86.
40
1.4142139999999999
0
CIRCLE
8
BLACK
10
100.
20
-82.
40
1.4142139999999999
0
CIRCLE
8
BLACK
10
119.
20
-147.
40
1.4142139999999999
0
CIRCLE
8
BLACK
10
136.72654
20
-150.1256669999999929
40
1.4142139999999999
0
CIRCLE
8
BLACK
10
136.
20
-122.
40
1.4142139999999999
0
CIRCLE
8
BLACK
10
64.
20
-131.
40
1.4142139999999999
0
CIRCLE
8
BLACK
10
46.
20
-95.
40
1.4142139999999999
0
CIRCLE
8
BLACK
10
100.
20
-100.
40
1.4142139999999999
0
CIRCLE
8
BLACK
10
82.
20
-122.
40
1.4142139999999999
0
CIRCLE
8
BLACK
10
46.
20
-131.
40
1.4142139999999999
0
CIRCLE
8
BLACK
10
100.
20
-118.
40
1.4142139999999999
0
CIRCLE
8
BLACK
10
64.
20
-113.
40
1.4142139999999999
0
CIRCLE
8
BLACK
10
136.
20
-104.
40
1.4142139999999999
0
CIRCLE
8
BLACK
10
46.
20
-113.
40
1.4142139999999999
0
CIRCLE
8
BLACK
10
82.
20
-86.
40
1.4142139999999999
0
CIRCLE
8
BLACK
10
118.
20
-104.
40
1.4142139999999999
  0
ENDSEC
  0
EOF
