0
SECTION
2
ENTITIES
0
LINE
8
Edge_Cuts
10
112.7
20
-9.41
30
0.0
11
112.7
21
-8
31
0.0
0
LINE
8
Edge_Cuts
10
112.7
20
-8
30
0.0
11
108
21
-8
31
0.0
0
LINE
8
Edge_Cuts
10
108
20
-8
30
0.0
11
71
21
0
31
0.0
0
LINE
8
Edge_Cuts
10
71
20
0
30
0.0
11
55
21
0
31
0.0
0
LINE
8
Edge_Cuts
10
55
20
0
30
0.0
11
0
21
-16
31
0.0
0
LINE
8
Edge_Cuts
10
0
20
-16
30
0.0
11
0
21
-51
31
0.0
0
LINE
8
Edge_Cuts
10
0
20
-51
30
0.0
11
38
21
-51
31
0.0
0
LINE
8
Edge_Cuts
10
38
20
-51
30
0.0
11
38
21
-41
31
0.0
0
LINE
8
Edge_Cuts
10
38
20
-41
30
0.0
11
61
21
-41
31
0.0
0
LINE
8
Edge_Cuts
10
61
20
-41
30
0.0
11
79
21
-50
31
0.0
0
LINE
8
Edge_Cuts
10
79
20
-50
30
0.0
11
70
21
-65
31
0.0
0
LINE
8
Edge_Cuts
10
70
20
-65
30
0.0
11
119
21
-94
31
0.0
0
LINE
8
Edge_Cuts
10
119
20
-94
30
0.0
11
133
21
-70
31
0.0
0
LINE
8
Edge_Cuts
10
133
20
-70
30
0.0
11
133.0
21
-59.715
31
0.0
0
LINE
8
Edge_Cuts
10
133.0
20
-59.715
30
0.0
11
128.0
21
-59.715
31
0.0
0
LINE
8
Edge_Cuts
10
128.0
20
-59.715
30
0.0
11
128.0
21
-54.715
31
0.0
0
LINE
8
Edge_Cuts
10
128.0
20
-54.715
30
0.0
11
133.0
21
-54.715
31
0.0
0
LINE
8
Edge_Cuts
10
133.0
20
-54.715
30
0.0
11
133
21
-8
31
0.0
0
LINE
8
Edge_Cuts
10
133
20
-8
30
0.0
11
125.3
21
-8
31
0.0
0
LINE
8
Edge_Cuts
10
125.3
20
-8
30
0.0
11
125.3
21
-9.41
31
0.0
0
ENDSEC
0
EOF
