0
SECTION
2
ENTITIES
0
LINE
8
Edge_Cuts
10
133
20
-16
30
0.0
11
78
21
0
31
0.0
0
LINE
8
Edge_Cuts
10
78
20
0
30
0.0
11
62
21
0
31
0.0
0
LINE
8
Edge_Cuts
10
62
20
0
30
0.0
11
25
21
-8
31
0.0
0
LINE
8
Edge_Cuts
10
25
20
-8
30
0.0
11
0
21
-8
31
0.0
0
LINE
8
Edge_Cuts
10
0
20
-8
30
0.0
11
0
21
-54.715
31
0.0
0
LINE
8
Edge_Cuts
10
0
20
-54.715
30
0.0
11
5.0
21
-54.715
31
0.0
0
LINE
8
Edge_Cuts
10
5.0
20
-54.715
30
0.0
11
5.0
21
-59.715
31
0.0
0
LINE
8
Edge_Cuts
10
5.0
20
-59.715
30
0.0
11
0
21
-59.715
31
0.0
0
LINE
8
Edge_Cuts
10
0
20
-59.715
30
0.0
11
0
21
-70
31
0.0
0
LINE
8
Edge_Cuts
10
0
20
-70
30
0.0
11
14
21
-94
31
0.0
0
LINE
8
Edge_Cuts
10
14
20
-94
30
0.0
11
63
21
-65
31
0.0
0
LINE
8
Edge_Cuts
10
63
20
-65
30
0.0
11
54
21
-50
31
0.0
0
LINE
8
Edge_Cuts
10
54
20
-50
30
0.0
11
72
21
-41
31
0.0
0
LINE
8
Edge_Cuts
10
72
20
-41
30
0.0
11
95
21
-41
31
0.0
0
LINE
8
Edge_Cuts
10
95
20
-41
30
0.0
11
95
21
-51
31
0.0
0
LINE
8
Edge_Cuts
10
95
20
-51
30
0.0
11
133
21
-51
31
0.0
0
LINE
8
Edge_Cuts
10
133
20
-51
30
0.0
11
133
21
-16
31
0.0
0
ENDSEC
0
EOF
